<mxfile host="app.diagrams.net" modified="2023-07-31T22:30:03.003Z" agent="Mozilla/5.0 (Windows NT 10.0; Win64; x64) AppleWebKit/537.36 (KHTML, like Gecko) Chrome/115.0.0.0 Safari/537.36" version="21.1.9" etag="eXZCSJNSe7-o7voLz6Fl" type="github">
  <diagram name="PÃ¡gina-1" id="ZAcTVCgNI6-cXXw2KgHS">
    <mxGraphModel>
      <root>
        <mxCell id="0" />
        <mxCell id="1" parent="0" />
      </root>
    </mxGraphModel>
  </diagram>
</mxfile>
